<svg xmlns="http://www.w3.org/2000/svg" viewBox="0 0 167.53 17.17"><defs><style>.cls-1{fill:#66abc1;}</style></defs><title>logo-horizontal_1</title><g id="Camada_2" data-name="Camada 2"><g id="Layer_1" data-name="Layer 1"><path d="M1.1,16.93a1.16,1.16,0,0,1-.78-.29.92.92,0,0,1-.32-.7V1.09A.92.92,0,0,1,.28.4.93.93,0,0,1,1,.13H7.58A4.82,4.82,0,0,1,10,.74a4.59,4.59,0,0,1,1.71,1.68,4.65,4.65,0,0,1,.64,2.46A4.71,4.71,0,0,1,12,6.76a4.53,4.53,0,0,1-1.06,1.51,4.7,4.7,0,0,1-1.54,1l-.52-.39a3.87,3.87,0,0,1,2.52,1.93,4,4,0,0,1,.43,1.77q0,.88.12,1.41a3.1,3.1,0,0,0,.21.83,1.18,1.18,0,0,0,.41.47,1,1,0,0,1,.45.58.76.76,0,0,1-.14.69.68.68,0,0,1-.4.3,1.22,1.22,0,0,1-.53.06,1,1,0,0,1-.46-.14,3.05,3.05,0,0,1-.74-.64,3.33,3.33,0,0,1-.6-1.21,7.75,7.75,0,0,1-.24-2.16,2.94,2.94,0,0,0-.24-1.27A2.22,2.22,0,0,0,9,10.66a2.39,2.39,0,0,0-.91-.43,4.46,4.46,0,0,0-1-.12H1.7L2,9.68v6.26a1.06,1.06,0,0,1-.24.7A.8.8,0,0,1,1.1,16.93Zm.6-8.55H7.58A2.5,2.5,0,0,0,8.89,7.9a3.2,3.2,0,0,0,1-1.21,3.9,3.9,0,0,0,.4-1.76,2.94,2.94,0,0,0-.81-2.12,2.68,2.68,0,0,0-2-.84H1.8L2,1.52V8.81Z"/><path d="M21.38,17.17A6.74,6.74,0,0,1,18,16.35a5.72,5.72,0,0,1-2.23-2.24,6.71,6.71,0,0,1-.79-3.3,7.22,7.22,0,0,1,.83-3.57A5.9,5.9,0,0,1,18,5a5.41,5.41,0,0,1,2.8-.78,5.6,5.6,0,0,1,4,1.59A6,6,0,0,1,26,7.67a6.18,6.18,0,0,1,.5,2.44.91.91,0,0,1-.31.65,1,1,0,0,1-.67.26H16.08l-.43-1.65h9.24l-.39.33V9.17a3,3,0,0,0-.63-1.69,4,4,0,0,0-1.38-1.09A3.91,3.91,0,0,0,20.78,6a4.13,4.13,0,0,0-1.42.25,3.48,3.48,0,0,0-1.28.81,4.21,4.21,0,0,0-.9,1.46,6.11,6.11,0,0,0-.33,2.13,5.18,5.18,0,0,0,.56,2.45A4.35,4.35,0,0,0,19,14.78a4.9,4.9,0,0,0,3.82.39,3.83,3.83,0,0,0,1.07-.54,4.47,4.47,0,0,0,.75-.66,1.13,1.13,0,0,1,.63-.21.82.82,0,0,1,.81.81.88.88,0,0,1-.38.72,6.11,6.11,0,0,1-1.84,1.31A5.42,5.42,0,0,1,21.38,17.17Z"/><path d="M29.18,4.3a1,1,0,0,1,.56.16.91.91,0,0,1,.38.44l4,9.36-.38.19,4.06-9.52a.87.87,0,0,1,.88-.63.92.92,0,0,1,.63.24.79.79,0,0,1,.26.6,1.27,1.27,0,0,1,0,.28c0,.09-.06.16-.09.23L34.8,16.3a.94.94,0,0,1-.84.63,1,1,0,0,1-.59-.14A.85.85,0,0,1,33,16.3L28.34,5.67a1.13,1.13,0,0,1-.08-.22,1.11,1.11,0,0,1,0-.28.86.86,0,0,1,.26-.59A.87.87,0,0,1,29.18,4.3Z"/><path d="M43,2.72a1.39,1.39,0,0,1-.89-.24.92.92,0,0,1-.28-.75V1.4a.88.88,0,0,1,.31-.75,1.43,1.43,0,0,1,.89-.24,1.32,1.32,0,0,1,.86.24.93.93,0,0,1,.29.75v.33a.9.9,0,0,1-.3.75A1.38,1.38,0,0,1,43,2.72Zm1,13.22a1,1,0,0,1-.27.7.94.94,0,0,1-.69.29.88.88,0,0,1-.69-.29,1,1,0,0,1-.27-.7V5.29a.94.94,0,0,1,1-1,1,1,0,0,1,.69.27,1,1,0,0,1,.27.69Z"/><path d="M46.75,15a1,1,0,0,1-.19-.66.81.81,0,0,1,.41-.61.83.83,0,0,1,.56-.15.91.91,0,0,1,.59.31,5.27,5.27,0,0,0,1.54,1.26,4.28,4.28,0,0,0,2.11.47,4.61,4.61,0,0,0,1.15-.19,2.11,2.11,0,0,0,1-.59,1.53,1.53,0,0,0,.4-1.11,1.42,1.42,0,0,0-.41-1.07A3,3,0,0,0,52.82,12a10.17,10.17,0,0,0-1.41-.44c-.53-.15-1-.31-1.56-.5a5.94,5.94,0,0,1-1.38-.69,3.24,3.24,0,0,1-1-1.06,3.09,3.09,0,0,1-.37-1.55,3.07,3.07,0,0,1,.59-1.87,3.81,3.81,0,0,1,1.58-1.22,5.4,5.4,0,0,1,2.18-.43,7,7,0,0,1,1.4.15,5.63,5.63,0,0,1,1.43.53,4.08,4.08,0,0,1,1.22,1,.9.9,0,0,1,.24.6.77.77,0,0,1-.31.65.88.88,0,0,1-1.13-.07,3.29,3.29,0,0,0-1.26-.93,4.29,4.29,0,0,0-1.67-.32A3.54,3.54,0,0,0,50.26,6a2.1,2.1,0,0,0-.93.56A1.52,1.52,0,0,0,49,7.66a1.55,1.55,0,0,0,.43,1.06,3,3,0,0,0,1.11.66c.46.17,1,.33,1.53.49s1,.28,1.48.44a5.34,5.34,0,0,1,1.28.66,2.88,2.88,0,0,1,.91,1A3.28,3.28,0,0,1,56,13.61a3,3,0,0,1-.62,1.91,4,4,0,0,1-1.65,1.23,5.69,5.69,0,0,1-2.19.42A7,7,0,0,1,49,16.66,5.23,5.23,0,0,1,46.75,15Z"/><path d="M69.12,4.4a.94.94,0,0,1,.7.27,1,1,0,0,1,.26.69V15.94a1,1,0,0,1-.28.7.94.94,0,0,1-1.36,0,1,1,0,0,1-.28-.7V13.66l.46-.05a2.35,2.35,0,0,1-.36,1.16,4.6,4.6,0,0,1-1,1.16,5.19,5.19,0,0,1-1.46.89,4.77,4.77,0,0,1-1.83.35A5.3,5.3,0,0,1,61,16.31,5.89,5.89,0,0,1,59,14a7.36,7.36,0,0,1-.74-3.34A7.22,7.22,0,0,1,59,7.31,6.09,6.09,0,0,1,61,5a5.25,5.25,0,0,1,2.9-.82,5.53,5.53,0,0,1,1.92.33,5.23,5.23,0,0,1,1.54.91,4.36,4.36,0,0,1,1,1.28,3,3,0,0,1,.36,1.39L68.16,8V5.36a.94.94,0,0,1,1-1Zm-4.94,11a3.74,3.74,0,0,0,2.12-.62,4.23,4.23,0,0,0,1.45-1.7,5.37,5.37,0,0,0,.53-2.41,5.38,5.38,0,0,0-.53-2.39A4.17,4.17,0,0,0,66.3,6.59,3.82,3.82,0,0,0,64.18,6a3.74,3.74,0,0,0-2.1.6,4.15,4.15,0,0,0-1.46,1.66,5.35,5.35,0,0,0-.52,2.42,5.37,5.37,0,0,0,.52,2.41,4.33,4.33,0,0,0,1.46,1.7A3.68,3.68,0,0,0,64.18,15.39Z"/><path class="cls-1" d="M75.15.13h8.54a1,1,0,0,1,.7.26.88.88,0,0,1,.29.67.85.85,0,0,1-.29.66,1,1,0,0,1-.7.25H76l.22-.4V7.64l-.24-.26h6.67a1,1,0,0,1,.7.26.87.87,0,0,1,.29.67.85.85,0,0,1-.29.66,1,1,0,0,1-.7.25H76L76.18,9v6.21L76,15.05h7.65a1,1,0,0,1,.7.29.91.91,0,0,1,.29.65.87.87,0,0,1-.29.67,1,1,0,0,1-.7.27H75.15a.94.94,0,0,1-.69-.29,1,1,0,0,1-.27-.7V1.09A1,1,0,0,1,74.46.4,1,1,0,0,1,75.15.13Z"/><path class="cls-1" d="M100.3.13a.85.85,0,0,1,.65.25.88.88,0,0,1,.24.63V15.92a1,1,0,0,1-.29.73,1,1,0,0,1-.7.28,1.14,1.14,0,0,1-.43-.09.73.73,0,0,1-.33-.23L89.16,3l.48-.29V16a.84.84,0,0,1-.25.63.9.9,0,0,1-.66.26.82.82,0,0,1-.62-.26.87.87,0,0,1-.24-.63V1.09a.94.94,0,0,1,.27-.7A.92.92,0,0,1,88.8.13a1.19,1.19,0,0,1,.45.08.77.77,0,0,1,.35.25L99.72,13.85l-.31.39V1a.89.89,0,0,1,.25-.63A.86.86,0,0,1,100.3.13Z"/><path class="cls-1" d="M106.35.13h8.54a1,1,0,0,1,.7.26.88.88,0,0,1,.29.67.85.85,0,0,1-.29.66,1,1,0,0,1-.7.25h-7.73l.22-.4V7.64l-.24-.26h6.67a1,1,0,0,1,.7.26.87.87,0,0,1,.29.67.85.85,0,0,1-.29.66,1,1,0,0,1-.7.25h-6.6l.17-.21v6.21l-.14-.17h7.65a1,1,0,0,1,.7.29.91.91,0,0,1,.29.65.87.87,0,0,1-.29.67,1,1,0,0,1-.7.27h-8.54a.94.94,0,0,1-.69-.29,1,1,0,0,1-.27-.7V1.09a1,1,0,0,1,.27-.69A1,1,0,0,1,106.35.13Z"/><path class="cls-1" d="M120.05.1a1.09,1.09,0,0,1,.47.12,1.16,1.16,0,0,1,.4.31l6.36,9.63-.84,0,6.43-9.6a.91.91,0,0,1,.81-.43,1.1,1.1,0,0,1,.68.29.91.91,0,0,1,.28.7V15.94a1,1,0,0,1-.28.7,1,1,0,0,1-.72.29,1,1,0,0,1-.72-.29.93.93,0,0,1-.29-.7v-13l.6.12-5.67,8.62a1.34,1.34,0,0,1-.34.28.75.75,0,0,1-.42.12.81.81,0,0,1-.44-.12,1.45,1.45,0,0,1-.36-.28L120.41,3l.51-.62V15.94a1,1,0,0,1-.27.7.87.87,0,0,1-.67.29.85.85,0,0,1-.66-.29,1,1,0,0,1-.25-.7V1.09a1,1,0,0,1,.27-.69A.93.93,0,0,1,120.05.1Z"/><path class="cls-1" d="M165.88,14.35a7.29,7.29,0,0,1-5.68,2.71h-1a1.31,1.31,0,0,1-.68-.19h0a1.37,1.37,0,0,1-.66-1.16,1.32,1.32,0,0,1,.4-1,1.35,1.35,0,0,1,.95-.4Z"/><path class="cls-1" d="M167.32,10.87a7.23,7.23,0,0,1-1.22,2.6H149a1.36,1.36,0,0,1-1.35-1.35,1.32,1.32,0,0,1,.4-1,1.35,1.35,0,0,1,1-.39H166.8A1.27,1.27,0,0,1,167.32,10.87Z"/><path class="cls-1" d="M167.53,8.53a7.88,7.88,0,0,1-.1,1.2,1.46,1.46,0,0,1-.63.15H153.32a1.12,1.12,0,0,1-.32,0,1.35,1.35,0,0,1-1-1.31,1.34,1.34,0,0,1,.4-1,1.31,1.31,0,0,1,.63-.35,1.12,1.12,0,0,1,.32,0H166.8a1.33,1.33,0,0,1,.63.15A7.88,7.88,0,0,1,167.53,8.53Z"/><path class="cls-1" d="M167.32,6.19a1.27,1.27,0,0,1-.52.1H154.63a1.34,1.34,0,0,1-1.28-.94,1.14,1.14,0,0,1-.07-.41,1.31,1.31,0,0,1,.4-1,1.23,1.23,0,0,1,.59-.35,1.36,1.36,0,0,1,.36-.05H166.1A7.15,7.15,0,0,1,167.32,6.19Z"/><path class="cls-1" d="M165.88,2.7H155.45a1.35,1.35,0,1,1,0-2.7h4.75A7.28,7.28,0,0,1,165.88,2.7Z"/></g></g></svg>