<svg xmlns="http://www.w3.org/2000/svg" viewBox="0 0 81.69 81.69"><defs><style>.cls-1{fill:#fff;}</style></defs><title>estado-rj</title><g id="Camada_2" data-name="Camada 2"><g id="Layer_1" data-name="Layer 1"><path class="cls-1" d="M.61,45.24a24.73,24.73,0,0,0,5.14-2.05,2.16,2.16,0,0,0,.74-.57.85.85,0,0,1,1.24-.35,1,1,0,0,0,.87.08,3.16,3.16,0,0,1,1.87-.15,3.1,3.1,0,0,0,2-.37,9.94,9.94,0,0,0,1.86-1.5,2.31,2.31,0,0,1,2-.65,1.32,1.32,0,0,0,1.11-.31,4,4,0,0,1,1-.67,13.92,13.92,0,0,1,3.81-1,52,52,0,0,1,5.44-.12A1.72,1.72,0,0,0,29,37.2a4.42,4.42,0,0,1,3.67-1,21.12,21.12,0,0,1,2.74.56c.7.2.78.32.61,1-.11.46,0,.63.5.59a3.88,3.88,0,0,0,1.94-.74,24.81,24.81,0,0,1,3.26-2.39c1.64-.82,3.29-1.6,5-2.39,2.58-1.23,5-2.72,7.89-3.34.17,0,.4-.08.42-.29s-.2-.24-.33-.33c-1-.64-1.06-1.18-.42-2.12a10.22,10.22,0,0,1,1.1-1.36,1.79,1.79,0,0,0,.49-2,.79.79,0,0,1,.32-1,1.35,1.35,0,0,0,.55-1,10.47,10.47,0,0,1,.41-1.74,11.33,11.33,0,0,0,.59-2.48,5.14,5.14,0,0,1,1.88-3.77c.87-.77.84-1.22.09-2.12-.46-.55-.37-1,.28-1.31a2,2,0,0,1,.72-.17A3.54,3.54,0,0,0,64,7.21,40.85,40.85,0,0,0,0,40.84a41.87,41.87,0,0,0,.25,4.51Z"/><path class="cls-1" d="M12.18,54.36a1,1,0,0,0,.59-.87,2.13,2.13,0,0,0-1.53-1.83c-.64-.1-1.28-.22-1.93-.28a7.13,7.13,0,0,0-3.54.41A2.7,2.7,0,0,1,1.9,50.15c-.22-.6-.42-1.2-.65-1.79A5.12,5.12,0,0,0,.46,47a40.5,40.5,0,0,0,3.3,11l1-.55a.75.75,0,0,1,.88,0,1.7,1.7,0,0,0,1.75.21A5.63,5.63,0,0,1,10,57.24a.83.83,0,0,0,1-.87A1.86,1.86,0,0,1,12.18,54.36Z"/><path class="cls-1" d="M68.82,13.48a1.74,1.74,0,0,0,1.35,1.92,4.88,4.88,0,0,0,2.34.27,2.42,2.42,0,0,1,.47,0,41.68,41.68,0,0,0-4.06-4.45C68.87,12,68.82,12.72,68.82,13.48Z"/><path class="cls-1" d="M79.64,40.91a6.76,6.76,0,0,1-2,1.1,31.67,31.67,0,0,0-8.25,2.81,14.48,14.48,0,0,0-3.14,2c-1.35,1.23-2.61,2.57-3.92,3.85a3.88,3.88,0,0,0-1.15,3.47A3.36,3.36,0,0,0,62,55.93c.37.4.85.31,1.32.32.11,0,.26,0,.28.14s-.12.18-.21.24A4.81,4.81,0,0,0,62,57.77c-.43.55-.8,1.16-1.27,1.67s-1,1.21-.32,2a.51.51,0,0,1-.16.71c-.26.21-.5.1-.7-.11a1.12,1.12,0,0,0-.71-.33l-3-.44a41.42,41.42,0,0,0-4.3-.55,16.34,16.34,0,0,1-2.79-.17,3.57,3.57,0,0,0-2.33.35,4.28,4.28,0,0,1-2.1.53,10.27,10.27,0,0,0-2,0,13,13,0,0,1-3.47.22,6.06,6.06,0,0,1-2.69-.68,1.39,1.39,0,0,1-.65-1.88c.63-1.28.86-2.78,2.06-3.77a.75.75,0,0,0,0-1,.54.54,0,0,0-.73-.24,21.07,21.07,0,0,1-2.33.75A3.37,3.37,0,0,0,32.89,56c-.08.1-.19.2-.11.35s.2.1.31.1a2.7,2.7,0,0,0,1.55-.29c.09-.06.21-.13.32,0s0,.26,0,.37a1.52,1.52,0,0,1-1,.87c-.6.18-.63.26-.34.83a1.67,1.67,0,0,0,.38.46,2.75,2.75,0,0,1,.84,1.6.87.87,0,0,1-.24.88,6.5,6.5,0,0,1-3.56,1.35H31a5.77,5.77,0,0,0-3.29.34,7.81,7.81,0,0,1-2.86.54c-1,0-2,0-3,0-.32,0-.6-.15-.6-.47s.33-.2.52-.24a8.36,8.36,0,0,0,2-.37c-.58-.51-1.13-1-1.64-1.52a2.94,2.94,0,0,0-1.76-1,1.86,1.86,0,0,1-1-.23.27.27,0,0,0-.39.11c-.39.62-1,.59-1.6.53a2.54,2.54,0,0,0-1,0,4.35,4.35,0,0,0-2.66,1.88,1.34,1.34,0,0,1-1.92.47,2.72,2.72,0,0,1-.83-.63.55.55,0,0,0-.57-.23A5.88,5.88,0,0,1,9,61.76c-.2,0-.48.08-.57-.18s.13-.46.33-.62a.54.54,0,0,1,.16-.1c.33-.15.34-.37.17-.65a2.19,2.19,0,0,1-.21-.4c-.15-.39-.29-.4-.49,0s-.51.72-1,.41c-.24-.15-.39,0-.46.21a1.57,1.57,0,0,0-.08.49c0,.59-.24.77-.84.7a1.82,1.82,0,0,0-.33,0,42,42,0,0,0,2.7,4,.47.47,0,0,1,.06-.09c.84-1.09,1.84-1.81,3.5-1a7.43,7.43,0,0,1,1.22.78c.32.25.26.44,0,.68a3.41,3.41,0,0,1-2.25.67c-.53-.08-1.22-.16-1.93-.28A40.84,40.84,0,0,0,81.69,40.84c0-.35,0-.7,0-1.05A22.41,22.41,0,0,0,79.64,40.91ZM20.05,63.33c-.49.08-.88.41-1.42.36a3.59,3.59,0,0,0-1.69.37l-.38.15a.66.66,0,0,1-.68-.37.53.53,0,0,1,.07-.69c.1-.11.2-.22.31-.32.53-.5.79-.54,1.33-.09a.59.59,0,0,0,.9,0,1.17,1.17,0,0,1,1.63.32C20.21,63.2,20.19,63.3,20.05,63.33Z"/></g></g></svg>