<svg xmlns="http://www.w3.org/2000/svg" viewBox="0 0 81.69 81.69"><defs><style>.cls-1{fill:#fff;}</style></defs><title>estado-ro_1</title><g id="Camada_2" data-name="Camada 2"><g id="Layer_1" data-name="Layer 1"><path class="cls-1" d="M62.06,74.45A4,4,0,0,1,58,72.7a6.8,6.8,0,0,0-1.34-1.5,11.43,11.43,0,0,0-4.16-2.06,43.2,43.2,0,0,1-4.79-1.81,2.43,2.43,0,0,1-1-.7,9.59,9.59,0,0,0-4.34-3.08A30.73,30.73,0,0,0,30.3,61.13a3.61,3.61,0,0,1-3.43-1.94A5.55,5.55,0,0,0,24,56.65,10.2,10.2,0,0,1,20.19,54a18,18,0,0,1-2.78-4.37,18.79,18.79,0,0,1-1.7-12.92A37,37,0,0,0,16.58,29c0-2-1-2.89-3-2.46a15,15,0,0,1-2.5.34,31.47,31.47,0,0,0-5.29.57c-1.22.26-2.46.45-3.69.64A40.84,40.84,0,0,0,64.41,74.2C63.63,74.3,62.85,74.38,62.06,74.45Z"/><path class="cls-1" d="M3.79,24.92a3.86,3.86,0,0,1,4.43.4A3.3,3.3,0,0,0,12,25.6c1-.46,2-.92,2.89-1.46a1.85,1.85,0,0,1,2.32.12A1.93,1.93,0,0,0,20,23.77a3.83,3.83,0,0,0,.63-1.2,4.5,4.5,0,0,1,3.51-3.21,24.08,24.08,0,0,1,5.27-.74A1.65,1.65,0,0,0,31,17.75c.37-.66.76-1.3,1.11-2a27.39,27.39,0,0,1,3.74-6.26C37,8.18,38.15,7,40,6.66h2.21a23.79,23.79,0,0,0,3.14.47A3.55,3.55,0,0,1,47.58,8.4c2.23,2.53,4.47,5.06,6.74,7.55,1.49,1.64,3,1.76,4.84.46l.31-.23a.73.73,0,0,1,1.2.24,3.87,3.87,0,0,1,.62,2.09c0,1.51-.07,3-.11,4.54-.08,2.78.89,5.42,1,8.2.06,2.41-.38,3.81-.3,6.22,0,1.27-1,2.88-.88,4.15a2.9,2.9,0,0,0,2.63,2.58c.73,0,1.47-.09,2.2-.06a60.8,60.8,0,0,1,6.72.73c2.18.34,4.43.56,6.58,1.05,1.8.4,2.23,1.65,1.13,3.13l-.24.3c-1.44,1.78-1.66,3.24-.64,5.15A40.85,40.85,0,0,0,3.07,25.3,6.17,6.17,0,0,1,3.79,24.92Z"/></g></g></svg>
