<svg xmlns="http://www.w3.org/2000/svg" viewBox="0 0 81.69 82.64"><defs><style>.cls-1{fill:#fff;}</style></defs><title>estado-pb</title><g id="Camada_2" data-name="Camada 2"><g id="Layer_1" data-name="Layer 1"><path class="cls-1" d="M4.38,23.27c0,.21,0,.43,0,.65s.09.43.41.44a1.5,1.5,0,0,0,.3,0,1.3,1.3,0,0,1,.91.28c.29.21.58.4.86.61a2.66,2.66,0,0,0,2.46.52,1.21,1.21,0,0,1,1.32.42l.17.21a.35.35,0,0,0,.57.07c.3-.22.6-.43.88-.66a7.51,7.51,0,0,1,3.61-1.65,2.83,2.83,0,0,0,.75-.23,1.13,1.13,0,0,0,.68-.78c.05-.19.09-.38.15-.57a1.3,1.3,0,0,1,1-1,2,2,0,0,1,.42,0c.16,0,.21-.08.16-.24s-.15-.43-.2-.66A1.3,1.3,0,0,1,20.17,19a9.15,9.15,0,0,1,2.61.2.28.28,0,0,0,.38-.19,1.35,1.35,0,0,1,.7-.65,2.22,2.22,0,0,1,1.08-.2,4.82,4.82,0,0,0,2.4-.64c.63-.34,1.21-.76,1.85-1.06a4.54,4.54,0,0,1,3.07-.4c.76.19,1,.42,1.05,1.2a1.34,1.34,0,0,1,0,.2c0,.28,0,.57.09.85.14.88.05,1-.8,1.24a1.53,1.53,0,0,0-.88.54c-.26.32-.5.65-.74,1a12.66,12.66,0,0,1-1.64,2,3.54,3.54,0,0,0-1.22,3.08c0,.33.08.65.09,1,0,.55-.19.79-.74.87l-.6.09c-.34.06-.46.19-.46.53,0,.54,0,1.08,0,1.61,0,.14.07.21.22.2a14.7,14.7,0,0,1,3.11.2,1,1,0,0,1,.84.61c.27.59.54,1.19.79,1.79.07.17.16.27.37.22.75-.16,1.52-.29,2.29-.38.44-.06.59-.21.66-.66a2.16,2.16,0,0,1,1.63-1.76.89.89,0,0,1,1.13.49,3.14,3.14,0,0,1,.22.72c.05.21.14.26.35.18.51-.21,1-.4,1.55-.6a1.29,1.29,0,0,1,1.48.31l.19.19a.94.94,0,0,0,.84.3.61.61,0,0,1,.8.55A2.52,2.52,0,0,1,42.5,35a.47.47,0,0,0,0,.69c0,.08.09.19.21.18s.12-.12.16-.2c.19-.4.34-.48.79-.44a3.23,3.23,0,0,1,.75.22c.62.18.88.09,1.14-.5s.69-1.35,1.07-2c.13-.23.1-.36-.13-.51l-.29-.13a1,1,0,0,1-.58-.89,2.66,2.66,0,0,1,0-.63,14.46,14.46,0,0,1,.51-1.82A2,2,0,0,1,47,27.68c.16-.09.09-.19-.05-.25s-.32-.1-.48-.15a.8.8,0,0,1-.59-.71,1.94,1.94,0,0,1,0-.59,19.37,19.37,0,0,1,.88-2.77.8.8,0,0,1,.74-.51,7.72,7.72,0,0,1,1-.05.4.4,0,0,0,.44-.3,4,4,0,0,1,.42-.88.54.54,0,0,1,.48-.25,2.09,2.09,0,0,1,.7.2c.39.17.39.17.67-.13a.73.73,0,0,1,1.15,0c.18.18.33.4.52.58a1.12,1.12,0,0,1,.15,1.5.44.44,0,0,0,0,.5.9.9,0,0,0,.82.41c.31,0,.63,0,.95.06a18.64,18.64,0,0,1,3,.34,2.89,2.89,0,0,0,2.51,1c.93-.11,1.87-.16,2.81-.18a1.82,1.82,0,0,0,1.46-.6,1.13,1.13,0,0,1,1.22-.29c.8.22,1.58.47,2.36.75a.24.24,0,0,0,.23,0,1.46,1.46,0,0,1,1.16-.09,2.07,2.07,0,0,0,.77.12,1.81,1.81,0,0,1,1,.18,2.77,2.77,0,0,1,1.07.78,1.65,1.65,0,0,0,1.78.42,2.78,2.78,0,0,0,.56-.24,1.83,1.83,0,0,1,.71-.25,1.58,1.58,0,0,1,1.3.46c.22.2.24.2.43-.05.08-.1.14-.2.22-.29a3.09,3.09,0,0,1,.54-.6.76.76,0,0,1,1.1.05,1,1,0,0,1,.18.17c.13.16.27.16.45.05l.13-.08a41.31,41.31,0,0,0-75.33-3A.78.78,0,0,1,4.38,23.27Z"/><path class="cls-1" d="M1.86,43.94C1.25,43.38.64,42.81.05,42.23a.1.1,0,0,0,0,0,42.61,42.61,0,0,0,.41,5.08,2.13,2.13,0,0,1,.34-.33,5.75,5.75,0,0,0,1.3-1.64A.9.9,0,0,0,1.86,43.94Z"/><path class="cls-1" d="M81.39,50a1.81,1.81,0,0,1-1.58-1.65,1,1,0,0,0-.7-1,20.47,20.47,0,0,0-2.44-.67,3.12,3.12,0,0,0-2.11.13c-.49.26-.87.7-1.36,1-.27.14-.57.22-.85.35s-.46.36-.72.5-1.33-.45-1.55.11-.32.84-.49,1.25a.28.28,0,0,0,.07.33A1.72,1.72,0,0,1,70,51a1.32,1.32,0,0,1-1.29,1.83l-.51,0a1.59,1.59,0,0,0-1.33.49,1.27,1.27,0,0,1-.69.43,33,33,0,0,1-3.92,1,2.51,2.51,0,0,0-1.12.42,3.08,3.08,0,0,1-1,.61,5.39,5.39,0,0,0-.91.13c-.24.11-.42.32-.66.4a1.18,1.18,0,0,1-.76-.09,5.47,5.47,0,0,1-1-.48c-.28-.17-.58-.32-.88-.12s-.48.5-.87.57S54,55.84,53.44,56c-.35.13-.58.49-.94.56s-.71-.15-1.06-.27a2,2,0,0,0-1-.06.92.92,0,0,0-.74.62c-.08.33.11.67-.06,1a1.22,1.22,0,0,1-.84.57,3.61,3.61,0,0,1-1.39,0,1.13,1.13,0,0,0-1,.26,2.09,2.09,0,0,0-1,1.55c0,.34,0,.68-.06,1a2.87,2.87,0,0,1-.75,1.48,5.06,5.06,0,0,1-2.42,1.37,12.9,12.9,0,0,0-1.91.62,4.28,4.28,0,0,0-1.73,1.15,2.09,2.09,0,0,1-1.51.8,1.12,1.12,0,0,0-.31,0h-.39a1.78,1.78,0,0,0-.61,0,.49.49,0,0,1-.42-.21,1.56,1.56,0,0,0-1.19-.72,4.46,4.46,0,0,1-.8-.2.77.77,0,0,1-.56-.65c0-.19,0-.38-.07-.56a7.15,7.15,0,0,1,.09-2.65,2.51,2.51,0,0,0-.14-1.41.94.94,0,0,0-.89-.71c-.23,0-.46,0-.69,0-.81,0-1.63,0-2.44,0A.73.73,0,0,1,28,58.36a1.59,1.59,0,0,1,.32-.36,3.61,3.61,0,0,1,1.18-.58,1.12,1.12,0,0,0,.81-1c0-.21.05-.42.07-.63a1,1,0,0,1,.67-.87c.3-.13.62-.18.93-.29a.82.82,0,0,0,.46-1.39,4.93,4.93,0,0,0-.56-.65,1.23,1.23,0,0,1-.19-1.65,8.94,8.94,0,0,1,1.72-2,2.53,2.53,0,0,1,1.52-.66,1.11,1.11,0,0,0,.52-.2.3.3,0,0,0,.16-.32A2.23,2.23,0,0,0,35,46.59a3,3,0,0,0-1.31-.79,4.77,4.77,0,0,1-2-1.16,1.67,1.67,0,0,0-2.47.27,2.43,2.43,0,0,1-1,.86,3.08,3.08,0,0,1-1.4.28.9.9,0,0,0-1,.65L25.8,47c-.4,1.35-1.74,1.78-2.87,2.32s-2.06,1.78-3.29,2.36c-.45.21-.94.33-1.39.53A3.63,3.63,0,0,0,17,53.26c-.37.4-.84.63-1.21,1s-.64.94-1.27.92a5.62,5.62,0,0,1-1-.18c-.31-.07-.37,0-.38.31a4.69,4.69,0,0,1,0,.53.55.55,0,0,1-.59.55,1.94,1.94,0,0,1-.82-.23,3.75,3.75,0,0,0-1.84-.3,4.83,4.83,0,0,1-2.23-.35A.85.85,0,0,1,7,54.7a.85.85,0,0,0-1.21-.86c-.49.15-1,.24-1.48.35a1.7,1.7,0,0,0-.75.34,1.87,1.87,0,0,1-1.31.39A41.32,41.32,0,0,0,81.69,50Z"/></g></g></svg>